<svg width="118" height="54" viewBox="0 0 118 54" fill="none" 
xmlns="http://www.w3.org/2000/svg">
<path d="M108 17C108 7.61116 99.7173 0 89.5 0C79.2827 0 71 7.61116 71 
17C71 26.3888 79.2827 34 89.5 34C99.7173 34 108 26.3888 108 17Z" 
fill="black"/>
<path d="M98.3 9.71813C99.1284 9.71813 99.8 9.10243 99.8 8.34292C99.8 
7.58341 99.1284 6.96771 98.3 6.96771C97.4716 6.96771 96.8 7.58341 96.8 
8.34292C96.8 9.10243 97.4716 9.71813 98.3 9.71813Z" fill="#E4E4E4"/>
<path d="M99 18.1527C100.215 18.1527 101.2 17.2497 101.2 16.1357C101.2 
15.0218 100.215 14.1188 99 14.1188C97.785 14.1188 96.8 15.0218 96.8 
16.1357C96.8 17.2497 97.785 18.1527 99 18.1527Z" fill="#E4E4E4"/>
<path d="M79 18.1527C80.215 18.1527 81.2 17.2497 81.2 16.1357C81.2 15.0218 
80.215 14.1188 79 14.1188C77.785 14.1188 76.8 15.0218 76.8 16.1357C76.8 
17.2497 77.785 18.1527 79 18.1527Z" fill="#E4E4E4"/>
<path d="M88.7 26.0373C95.2722 26.0373 100.6 23.164 100.6 19.6197C100.6 
16.0753 95.2722 13.202 88.7 13.202C82.1278 13.202 76.8 16.0753 76.8 
19.6197C76.8 23.164 82.1278 26.0373 88.7 26.0373Z" fill="#FFFDFD"/>
<path d="M86.8 18.1528C86.8 19.0642 85.9941 19.803 85 19.803C84.0059 
19.803 83.2 19.0642 83.2 18.1528C83.2 17.2413 84.0059 16.5025 85 
16.5025C85.9941 16.5025 86.8 17.2413 86.8 18.1528Z" fill="black"/>
<path d="M93 19.803C93.9941 19.803 94.8 19.0642 94.8 18.1528C94.8 17.2413 
93.9941 16.5025 93 16.5025C92.0059 16.5025 91.2 17.2413 91.2 18.1528C91.2 
19.0642 92.0059 19.803 93 19.803Z" fill="black"/>
<path d="M85 22.4887C85 22.4887 86.4226 23.7271 89.3875 23.6573C92.3524 
23.5874 92.7656 22.3701 92.7656 22.3701" stroke="black" 
stroke-width="3.45" stroke-linecap="round"/>
<path d="M88.2 14.0627L89.9081 7.22876" stroke="#E4E4E4" 
stroke-width="2.76" stroke-linecap="round"/>
<path d="M90 7.23836C90.2224 7.1808 98.3872 8.29725 98.3872 8.29725" 
stroke="#E4E4E4" stroke-width="2.76" stroke-linecap="round"/>
<path d="M117.438 37.0371L112.305 35.0989C111.548 34.8132 110.314 34.8102 
109.549 35.0924C108.783 35.3744 108.775 35.8346 109.531 36.1203L111.387 
36.8209H1.9493C0.872785 36.8209 0 37.1463 0 37.5478C0 37.9493 0.872785 
38.2746 1.9493 38.2746H111.387L109.531 38.9753C108.775 39.2608 108.782 
39.7211 109.548 40.0031C109.928 40.1429 110.423 40.2127 110.918 
40.2127C111.421 40.2127 111.924 40.1406 112.305 39.9966L117.438 
38.0583C118.187 37.7754 118.187 37.3202 117.438 37.0371Z" fill="#808080"/>
<path d="M84.332 49.2032C83.5744 49.2032 82.8851 49.0395 82.565 
48.7833L55.9311 27.4568L50.1323 30.5111C49.7294 30.7233 49.0532 30.8394 
48.3588 30.8147C47.6644 30.7904 47.058 30.6296 46.7681 30.3929L37.2295 
22.6017L17.2573 37.5569C16.7772 37.9164 15.6071 38.0625 14.6435 
37.8835C13.6802 37.7045 13.2877 37.2681 13.7675 36.9089L35.5609 
20.5899C35.896 20.3391 36.5929 20.1801 37.3385 20.1871C38.0898 20.1918 
38.7669 20.3572 39.0788 20.6121L48.9073 28.6401L54.6893 25.5948C55.0906 
25.3833 55.7642 25.267 56.4556 25.2909C57.1477 25.3143 57.7541 25.4731 
58.0472 25.7081L84.2983 46.7277L95.5 37.4121C95.9404 37.0457 97.0951 
36.8823 98.0762 37.0462C99.0585 37.2104 99.498 37.6406 99.0573 
38.0069L86.1107 48.7738C85.7987 49.0334 85.1089 49.2012 84.346 
49.2033C84.3412 49.2032 84.3363 49.2032 84.332 49.2032Z" fill="black"/>
<path d="M21.7562 12.1236L16.5582 10.2097C15.7991 9.93011 14.5783 9.93011 
13.8191 10.2097L8.62111 12.1236C7.85503 12.4056 7.84719 12.8658 8.60359 
13.1515C9.35999 13.4371 10.5942 13.4401 11.36 13.158L13.239 
12.466V53.2731C13.239 53.6746 14.1118 54 15.1883 54C16.2648 54 17.1376 
53.6746 17.1376 53.2731V12.466L19.0166 13.158C19.3964 13.2978 19.8915 
13.3676 20.3861 13.3676C20.8892 13.3676 21.3918 13.2955 21.7733 
13.1515C22.5299 12.8658 22.5223 12.4056 21.7562 12.1236Z" fill="#808080"/>
</svg>
